# xmcd CD database file
#
# Track frame offsets:
#	150
#	23228
#	44082
#	67677
#	76508
#	106850
#	131356
#	152478
#	169702
#	187257
#	216767
#	241616
#	272855
#
# Disc length: 4194 seconds
#
# Revision: 0
# Processed by: cddbd v1.4PL0 Copyright (c) Steve Scherf et al.
# Submitted via: CDex 1.50
#
DISCID=a110600d
DTITLE=Guy Forsyth - Guy Forsyth with Strings Attached
DYEAR=2002
DGENRE=Country
TTITLE0=Children of Jack
TTITLE1=Heart Shaped Hole
TTITLE2=Hallelujah
TTITLE3=Irish Intro
TTITLE4=Heart of Sawdust
TTITLE5=Leave Me Alone
TTITLE6=Midnight Train
TTITLE7=New Monkey King
TTITLE8=Born Too Late
TTITLE9=The Water is Wide
TTITLE10=Amazing Grace
TTITLE11=Voices  Inside
TTITLE12=No name
EXTD=YEAR: 2002
EXTT0=
EXTT1=
EXTT2=
EXTT3=
EXTT4=
EXTT5=
EXTT6=
EXTT7=
EXTT8=
EXTT9=
EXTT10=
EXTT11=
EXTT12=
PLAYORDER=
